<svg width="60" height="61" viewBox="0 0 60 61" fill="none" xmlns="http://www.w3.org/2000/svg">
<path d="M0.641533 0.503476C0.458725 0.538357 0.294116 0.636696 0.17676 0.781135C0.0594027 0.925574 -0.00315674 1.10683 0.000122681 1.2929V9.18718C0.000143614 9.39655 0.0833224 9.59733 0.231364 9.74537C0.379406 9.89341 0.580188 9.97659 0.789551 9.97661H3.94726V51.0269H0.789551C0.74032 51.0222 0.690763 51.0222 0.641533 51.0269C0.458725 51.0617 0.294116 51.1601 0.17676 51.3045C0.0594027 51.449 -0.00315674 51.6302 0.000122681 51.8163V59.7106C0.000143614 59.9199 0.0833224 60.1207 0.231364 60.2688C0.379406 60.4168 0.580188 60.5 0.789551 60.5H8.68383C8.89319 60.5 9.09398 60.4168 9.24202 60.2688C9.39006 60.1207 9.47324 59.9199 9.47326 59.7106V56.5529H45.0222C45.1268 56.5543 45.2307 56.535 45.3277 56.496C45.4248 56.457 45.5132 56.3991 45.5877 56.3256C45.6622 56.2522 45.7213 56.1647 45.7617 56.0681C45.8021 55.9716 45.8229 55.868 45.8229 55.7634C45.8229 55.6588 45.8021 55.5552 45.7617 55.4587C45.7213 55.3622 45.6622 55.2747 45.5877 55.2012C45.5132 55.1278 45.4248 55.0699 45.3277 55.0309C45.2307 54.9919 45.1268 54.9725 45.0222 54.974H9.47326V51.8163C9.47324 51.6069 9.39006 51.4061 9.24202 51.2581C9.09398 51.1101 8.89319 51.0269 8.68383 51.0269H5.52612V9.97661H8.68383C8.89319 9.97659 9.09398 9.89341 9.24202 9.74537C9.39006 9.59733 9.47324 9.39655 9.47326 9.18718V6.02947H45.0222C45.1268 6.03095 45.2307 6.01162 45.3277 5.97262C45.4248 5.93361 45.5132 5.87569 45.5877 5.80224C45.6622 5.72879 45.7213 5.64127 45.7617 5.54475C45.8021 5.44824 45.8229 5.34466 45.8229 5.24004C45.8229 5.13543 45.8021 5.03185 45.7617 4.93534C45.7213 4.83882 45.6622 4.7513 45.5877 4.67785C45.5132 4.60439 45.4248 4.54648 45.3277 4.50747C45.2307 4.46846 45.1268 4.44914 45.0222 4.45062H9.47326V1.2929C9.47324 1.08354 9.39006 0.88276 9.24202 0.734718C9.09398 0.586676 8.89319 0.503497 8.68383 0.503476H0.789551C0.74032 0.498841 0.690763 0.498841 0.641533 0.503476ZM51.1649 0.503476C50.9821 0.538357 50.8175 0.636696 50.7001 0.781135C50.5828 0.925574 50.5202 1.10683 50.5235 1.2929V9.18718C50.5235 9.39655 50.6067 9.59733 50.7548 9.74537C50.9028 9.89341 51.1036 9.97659 51.3129 9.97661H54.4707V45.3035C54.4692 45.4081 54.4885 45.512 54.5275 45.6091C54.5665 45.7061 54.6244 45.7945 54.6979 45.869C54.7713 45.9435 54.8589 46.0026 54.9554 46.043C55.0519 46.0834 55.1555 46.1042 55.2601 46.1042C55.3647 46.1042 55.4683 46.0834 55.5648 46.043C55.6613 46.0026 55.7488 45.9435 55.8223 45.869C55.8957 45.7945 55.9536 45.7061 55.9927 45.6091C56.0317 45.512 56.051 45.4081 56.0495 45.3035V9.97661H59.2072C59.4166 9.97659 59.6174 9.89341 59.7654 9.74537C59.9134 9.59733 59.9966 9.39655 59.9966 9.18718V1.2929C59.9966 1.08354 59.9134 0.88276 59.7654 0.734718C59.6174 0.586676 59.4166 0.503497 59.2072 0.503476H51.3129C51.2637 0.498841 51.2142 0.498841 51.1649 0.503476ZM1.57898 2.08233H7.8944V8.39776H1.57898V2.08233ZM52.1024 2.08233H58.4178V8.39776H52.1024V2.08233ZM23.6336 23.3969C23.4489 23.4071 23.2736 23.4818 23.1383 23.608C23.003 23.7343 22.9164 23.904 22.8935 24.0876C22.8915 24.1205 22.8915 24.1535 22.8935 24.1863V36.8172C22.8936 37.0265 22.9767 37.2273 23.1248 37.3753C23.2728 37.5234 23.4736 37.6066 23.683 37.6066H36.3138C36.5232 37.6066 36.724 37.5234 36.872 37.3753C37.02 37.2273 37.1032 37.0265 37.1032 36.8172V24.1863C37.1032 23.977 37.02 23.7762 36.872 23.6281C36.724 23.4801 36.5232 23.3969 36.3138 23.3969H23.683C23.6665 23.3964 23.6501 23.3964 23.6336 23.3969ZM24.4724 24.9757H35.5244V36.0277H24.4724V24.9757ZM51.1649 51.0269C50.9821 51.0617 50.8175 51.1601 50.7001 51.3045C50.5828 51.449 50.5202 51.6302 50.5235 51.8163V59.7106C50.5235 59.9199 50.6067 60.1207 50.7548 60.2688C50.9028 60.4168 51.1036 60.5 51.3129 60.5H59.2072C59.4166 60.5 59.6174 60.4168 59.7654 60.2688C59.9134 60.1207 59.9966 59.9199 59.9966 59.7106V51.8163C59.9966 51.6069 59.9134 51.4061 59.7654 51.2581C59.6174 51.1101 59.4166 51.0269 59.2072 51.0269H51.3129C51.2637 51.0222 51.2142 51.0222 51.1649 51.0269ZM1.57898 52.6057H7.8944V58.9211H1.57898V52.6057ZM52.1024 52.6057H58.4178V58.9211H52.1024V52.6057Z" fill="#B09F00"/>
</svg>
