<svg width="61" height="61" viewBox="0 0 61 61" fill="none" xmlns="http://www.w3.org/2000/svg">
<path d="M57.9434 26.8576V4.14893C57.9434 2.13696 56.3065 0.5 54.2945 0.5H6.69879C4.68683 0.5 3.04987 2.13696 3.04987 4.14893V26.6561C1.478 27.8589 0.496643 29.751 0.496643 31.8378V51.2122C0.496643 51.6263 0.832092 51.9622 1.24664 51.9622H6.61452L6.61383 59.75C6.61383 60.1642 6.94928 60.5 7.36383 60.5C7.77765 60.5 8.11383 60.1642 8.11383 59.75L8.11452 51.9622H52.8787L52.878 59.75C52.878 60.1642 53.2134 60.5 53.628 60.5C54.0418 60.5 54.378 60.1642 54.378 59.75L54.3787 51.9622H59.7466C60.1612 51.9622 60.4966 51.6263 60.4966 51.2122V32.0333C60.4966 29.9425 59.5185 28.0612 57.9434 26.8576ZM4.54987 4.14893C4.54987 2.96387 5.51373 2 6.69879 2H54.2945C55.4796 2 56.4434 2.96387 56.4434 4.14893V25.9974C56.1049 25.8588 55.7513 25.7455 55.3836 25.662C54.114 25.3736 52.8622 25.114 51.6234 24.8735V16.5704C51.6234 14.7028 50.1036 13.183 48.2359 13.183H33.1341C32.063 13.183 31.1179 13.6925 30.4966 14.4711C29.8754 13.6925 28.9303 13.183 27.8592 13.183H12.7574C10.8897 13.183 9.36993 14.7028 9.36993 16.5704V24.629C7.89474 24.9234 6.56874 25.2256 5.41119 25.5159C5.11356 25.5904 4.82777 25.6895 4.54987 25.8022V4.14893ZM29.7466 22.7123C22.1912 22.6941 15.7966 23.4456 10.8699 24.3433V16.5704C10.8699 15.5297 11.7166 14.683 12.7574 14.683H27.8592C28.9 14.683 29.7466 15.5297 29.7466 16.5704V22.7123ZM50.1234 24.5932C43.2919 23.3563 36.9572 22.8175 31.2466 22.7272V16.5704C31.2466 15.5297 32.0933 14.683 33.1341 14.683H48.2359C49.2767 14.683 50.1234 15.5297 50.1234 16.5704V24.5932ZM1.99664 50.4622V42.2122H58.9966V50.4622H1.99664ZM58.9966 40.7122H1.99664V31.8378C1.99664 29.5299 3.55084 27.5286 5.77594 26.9712C10.9657 25.6692 19.5068 24.1196 30.4455 24.2161C30.4633 24.2174 30.4785 24.2264 30.4966 24.2264C30.5127 24.2264 30.526 24.2183 30.5418 24.2173C37.7612 24.2873 46.0185 25.0732 55.0511 27.1246C57.3743 27.6523 58.9966 29.6709 58.9966 32.0333V40.7122Z" fill="#B09F00"/>
</svg>
