<svg width="60" height="61" viewBox="0 0 60 61" fill="none" xmlns="http://www.w3.org/2000/svg">
<path d="M14.9778 56.7185C14.8732 57.6142 14.5572 58.7996 13.8757 59.0429C13.4854 59.182 13.2821 59.6114 13.4213 60.0015C13.5308 60.3084 13.8197 60.5 14.1277 60.5C14.2115 60.5 14.2965 60.4857 14.3796 60.456C15.9367 59.9002 16.3624 57.9232 16.4785 56.8221C16.6255 56.8259 16.7715 56.8333 16.9193 56.8333H43.0807C43.2285 56.8333 43.3745 56.8259 43.5215 56.8221C43.6376 57.9232 44.0633 59.9002 45.6204 60.456C45.7035 60.4857 45.7885 60.5 45.8723 60.5C46.1803 60.5 46.4692 60.3084 46.5787 60.0015C46.7179 59.6114 46.5146 59.182 46.1243 59.0429C45.4476 58.8013 45.1301 57.615 45.0237 56.7183C53.4407 55.7508 60 48.5838 60 39.9098V31.2555V10.8946C60 5.16303 55.3381 0.5 49.608 0.5C46.8322 0.5 44.2225 1.58133 42.2596 3.54471L41.7262 4.07832L39.902 2.25349C37.6681 0.0183121 34.0323 0.0175795 31.7977 2.25349L28.8091 5.24325C28.5161 5.53629 28.5161 6.01102 28.8091 6.30406L40.7131 18.2111C40.8538 18.3518 41.0446 18.4309 41.2434 18.4309C41.4423 18.4309 41.6331 18.3518 41.7737 18.2111L44.7623 15.2213C45.8448 14.1389 46.441 12.6993 46.441 11.1686C46.441 9.63742 45.8448 8.19785 44.7623 7.11543L42.7867 5.13913L43.3202 4.60552C44.9996 2.92566 47.2328 2.00038 49.608 2.00038C54.5112 2.00038 58.5 5.99014 58.5 10.8946V30.5053H47.5842C47.0853 29.0963 45.7535 28.0782 44.176 28.0782H35.7177C34.1402 28.0782 32.8084 29.0963 32.3095 30.5053H0.75C0.335815 30.5053 0 30.8412 0 31.2555V39.9098C0 48.5843 6.56003 55.7516 14.9778 56.7185ZM44.941 11.1686C44.941 12.2986 44.5009 13.3613 43.7018 14.1605L41.2434 16.6199L30.3999 5.77366L32.8583 3.3143C34.5084 1.66448 37.192 1.66448 38.8414 3.3143L41.1954 5.66908C41.1953 5.6689 41.1956 5.66926 41.1954 5.66908C41.1956 5.66926 41.1962 5.66981 41.1964 5.67L43.7018 8.17624C44.5009 8.97551 44.941 10.0382 44.941 11.1686ZM33.5889 31.7079C33.5889 30.5339 34.5439 29.5786 35.7177 29.5786H44.176C45.3497 29.5786 46.3048 30.5339 46.3048 31.7079V46.5472H33.5889V31.7079ZM1.5 32.0057H32.0889V47.2974C32.0889 47.7116 32.4247 48.0475 32.8389 48.0475H47.0548C47.469 48.0475 47.8048 47.7116 47.8048 47.2974V32.0057H58.5V39.9098C58.5 48.4142 51.583 55.3329 43.0807 55.3329H16.9193C8.41699 55.3329 1.5 48.4142 1.5 39.9098V32.0057Z" fill="#B09F00"/>
</svg>
