<svg width="61" height="61" viewBox="0 0 61 61" fill="none" xmlns="http://www.w3.org/2000/svg">
<path d="M57.9434 26.8576V4.14893C57.9434 2.13696 56.3064 0.5 54.2944 0.5H6.69873C4.68677 0.5 3.0498 2.13696 3.0498 4.14893V26.6561C1.47794 27.8589 0.496582 29.751 0.496582 31.8378V51.2122C0.496582 51.6263 0.832031 51.9622 1.24658 51.9622H6.61446L6.61377 59.75C6.61377 60.1642 6.94922 60.5 7.36377 60.5C7.77759 60.5 8.11377 60.1642 8.11377 59.75L8.11446 51.9622H52.8787L52.8779 59.75C52.8779 60.1642 53.2134 60.5 53.6279 60.5C54.0417 60.5 54.3779 60.1642 54.3779 59.75L54.3787 51.9622H59.7466C60.1611 51.9622 60.4966 51.6263 60.4966 51.2122V32.0333C60.4966 29.9425 59.5184 28.0612 57.9434 26.8576ZM4.5498 4.14893C4.5498 2.96387 5.51367 2 6.69873 2H54.2944C55.4795 2 56.4434 2.96387 56.4434 4.14893V25.9974C56.1049 25.8588 55.7512 25.7455 55.3835 25.662C54.114 25.3736 52.8622 25.114 51.6233 24.8735V16.5704C51.6233 14.7028 50.1035 13.183 48.2358 13.183H33.134C32.063 13.183 31.1178 13.6925 30.4966 14.4711C29.8754 13.6925 28.9302 13.183 27.8591 13.183H12.7573C10.8896 13.183 9.36987 14.7028 9.36987 16.5704V24.629C7.89468 24.9234 6.56868 25.2256 5.41113 25.5159C5.11349 25.5904 4.82771 25.6895 4.5498 25.8022V4.14893ZM29.7466 22.7123C22.1911 22.6941 15.7966 23.4456 10.8699 24.3433V16.5704C10.8699 15.5297 11.7166 14.683 12.7573 14.683H27.8591C28.8999 14.683 29.7466 15.5297 29.7466 16.5704V22.7123ZM50.1233 24.5932C43.2919 23.3563 36.9571 22.8175 31.2466 22.7272V16.5704C31.2466 15.5297 32.0933 14.683 33.134 14.683H48.2358C49.2766 14.683 50.1233 15.5297 50.1233 16.5704V24.5932ZM1.99658 50.4622V42.2122H58.9966V50.4622H1.99658ZM58.9966 40.7122H1.99658V31.8378C1.99658 29.5299 3.55078 27.5286 5.77588 26.9712C10.9657 25.6692 19.5067 24.1196 30.4454 24.2161C30.4633 24.2174 30.4784 24.2264 30.4966 24.2264C30.5126 24.2264 30.526 24.2183 30.5417 24.2173C37.7611 24.2873 46.0184 25.0732 55.051 27.1246C57.3743 27.6523 58.9966 29.6709 58.9966 32.0333V40.7122Z" fill="#B09F00"/>
</svg>
